<svg xmlns="http://www.w3.org/2000/svg" fill="none" viewBox="0 0 48 48" id="Exit-Outline--Streamline-Ionic-Outline" height="24" width="24"><desc>Exit Outline Streamline Icon: https://streamlinehq.com</desc><path stroke="#000000" stroke-linecap="round" stroke-linejoin="round" d="M30.7201 15.6v-4.2001c0 -1.1139 -0.4424 -2.1822 -1.2302 -2.9698 -0.7876 -0.7877 -1.8558 -1.2302 -2.9698 -1.2302H6.36c-1.1139 0 -2.1822 0.4425 -2.9698 1.2302 -0.7877 0.7876 -1.2302 1.8559 -1.2302 2.9698v25.2002c0 1.1139 0.4425 2.1822 1.2302 2.9698 0.7876 0.7878 1.8559 1.2302 2.9698 1.2302h20.1601c1.114 0 2.1822 -0.4424 2.9698 -1.2302 0.7878 -0.7876 1.2302 -1.8559 1.2302 -2.9698V32.4" stroke-width="3"></path><path stroke="#000000" stroke-linecap="round" stroke-linejoin="round" d="m37.4396 15.5996 8.4001 8.4001 -8.4001 8.4001" stroke-width="3"></path><path stroke="#000000" stroke-linecap="round" stroke-linejoin="round" d="M17.1748 23.9997H45.84" stroke-width="3"></path></svg>